<?xml version="1.0" encoding="utf-8"?>
<!-- Generator: Adobe Illustrator 23.0.5, SVG Export Plug-In . SVG Version: 6.00 Build 0)  -->
<svg version="1.1" id="Layer_1" xmlns="http://www.w3.org/2000/svg" xmlns:xlink="http://www.w3.org/1999/xlink" x="0px" y="0px"
	 viewBox="0 0 244.2 66.4" style="enable-background:new 0 0 244.2 66.4;" xml:space="preserve">
<image style="display:none;overflow:visible;" width="300" height="67" xlink:href="D:\Шухрат\Логотип\internet-magazin_300х67.png"  transform="matrix(0.7103 0 0 0.7103 -1.6158 7.4347)">
</image>
<g>
	<path d="M11.5,38.5v-9.9H9v-5.1h2.5v-5.3h5.9v5.3h4.9v5.1h-4.9v8.9c0,1.4,0.6,2,1.9,2c1.1,0,2.1-0.3,2.9-0.7v4.8
		c-1.2,0.7-2.7,1.2-4.7,1.2C13.9,44.8,11.5,43.4,11.5,38.5z"/>
	<path d="M25.1,34c0-6,4.3-10.9,10.3-10.9c7,0,10.2,5.4,10.2,11.4c0,0.5,0,1-0.1,1.6H31c0.6,2.7,2.5,4.1,5.1,4.1
		c2,0,3.4-0.6,5.1-2.1l3.4,3c-2,2.4-4.8,3.9-8.5,3.9C29.7,44.9,25.1,40.5,25.1,34z M39.8,32.4c-0.4-2.7-1.9-4.4-4.4-4.4
		c-2.5,0-4.1,1.8-4.5,4.4H39.8z"/>
	<path d="M54.4,33.8l-7.1-10.3h6.4l3.9,6.1l3.9-6.1h6.2l-7.1,10.2l7.4,10.7h-6.4l-4.2-6.5l-4.2,6.5h-6.2L54.4,33.8z"/>
	<path d="M71.6,23.5h5.9v3c1.4-1.8,3.1-3.4,6.1-3.4c4.5,0,7.1,3,7.1,7.8v13.5h-5.9V32.8c0-2.8-1.3-4.3-3.6-4.3
		c-2.3,0-3.7,1.4-3.7,4.3v11.7h-5.9V23.5z"/>
	<path d="M94.9,34c0-6,4.8-10.9,11.4-10.9c6.5,0,11.3,4.8,11.3,10.9c0,6-4.8,10.9-11.4,10.9C99.7,44.9,94.9,40.1,94.9,34z M111.7,34
		c0-3.1-2.2-5.8-5.5-5.8c-3.4,0-5.4,2.6-5.4,5.8c0,3.1,2.2,5.8,5.5,5.8C109.7,39.8,111.7,37.2,111.7,34z"/>
	<path d="M121.8,23.5h5.9v3c1.4-1.8,3.2-3.4,6.2-3.4c2.7,0,4.8,1.2,5.9,3.3c1.8-2.1,4-3.3,6.9-3.3c4.4,0,7.1,2.7,7.1,7.7v13.6h-5.9
		V32.8c0-2.8-1.2-4.3-3.5-4.3c-2.2,0-3.6,1.4-3.6,4.3v11.7h-5.9V32.8c0-2.8-1.2-4.3-3.5-4.3c-2.2,0-3.6,1.4-3.6,4.3v11.7h-5.9V23.5z
		"/>
	<path d="M157.6,38.4c0-4.6,3.5-6.7,8.4-6.7c2.1,0,3.6,0.4,5.1,0.9v-0.4c0-2.5-1.5-3.8-4.5-3.8c-2.3,0-3.9,0.4-5.8,1.1l-1.5-4.5
		c2.3-1,4.6-1.7,8.1-1.7c3.2,0,5.6,0.9,7.1,2.3c1.6,1.6,2.3,3.9,2.3,6.7v12.1h-5.7v-2.3c-1.4,1.6-3.4,2.7-6.3,2.7
		C160.9,44.8,157.6,42.6,157.6,38.4z M171.3,37.1V36c-1-0.5-2.3-0.8-3.8-0.8c-2.5,0-4.1,1-4.1,3c0,1.6,1.3,2.5,3.2,2.5
		C169.4,40.7,171.3,39.2,171.3,37.1z"/>
	<path d="M182,23.5h5.9v4.2c1.2-2.9,3.2-4.8,6.7-4.6v6.2h-0.3c-3.9,0-6.4,2.4-6.4,7.4v7.7H182V23.5z"/>
	<path d="M199.3,38.5v-9.9h-2.5v-5.1h2.5v-5.3h5.9v5.3h4.9v5.1h-4.9v8.9c0,1.4,0.6,2,1.9,2c1.1,0,2.1-0.3,2.9-0.7v4.8
		c-1.2,0.7-2.7,1.2-4.7,1.2C201.7,44.8,199.3,43.4,199.3,38.5z"/>
</g>
<polygon points="237.2,21.7 234.2,26.8 228.2,23.3 228.2,30.3 222.2,30.3 222.2,23.3 216.2,26.8 213.2,21.7 219.3,18.2 213.3,14.7 
	216.2,9.6 222.2,13.1 222.2,6.1 228.2,6.1 228.2,13.1 234.2,9.6 237.1,14.7 231.1,18.2 "/>
<g>
	<path d="M48,52.2l-1.3,1l-0.6-1l1.5-0.6l-1.5-0.6l0.6-1l1.3,1l-0.2-1.6h1.1l-0.2,1.6l1.3-1l0.6,1L49,51.6l1.5,0.6l-0.6,1l-1.3-1
		l0.2,1.6h-1.1L48,52.2z"/>
	<path d="M59,58.9h-2v-4.2l-2.8,4.2h-1.9v-7.3h2v4.3l2.8-4.3H59V58.9z"/>
	<path d="M67.5,58.9h-2.1v-2.8h-2.5v2.8h-2.1v-7.3h2.1v2.8h2.5v-2.8h2.1V58.9z"/>
	<path d="M75.1,53.3h-2.2v5.5h-2.1v-5.5h-2.2v-1.8h6.4V53.3z"/>
	<path d="M75.6,55.2c0-2.1,1.5-3.8,3.6-3.8c2.4,0,3.6,1.9,3.6,4c0,0.2,0,0.4,0,0.5h-5.1c0.2,0.9,0.9,1.4,1.8,1.4
		c0.7,0,1.2-0.2,1.8-0.7l1.2,1c-0.7,0.8-1.7,1.4-3,1.4C77.2,59,75.6,57.5,75.6,55.2z M80.7,54.6c-0.1-0.9-0.7-1.6-1.5-1.6
		c-0.9,0-1.4,0.6-1.6,1.6H80.7z"/>
	<path d="M84.3,51.6h2.1v1c0.5-0.7,1.2-1.2,2.3-1.2c1.7,0,3.3,1.3,3.3,3.8c0,2.4-1.6,3.8-3.3,3.8c-1.1,0-1.8-0.5-2.3-1.1V61h-2.1
		V51.6z M89.9,55.2c0-1.2-0.8-2-1.8-2c-1,0-1.8,0.8-1.8,2c0,1.2,0.8,2,1.8,2C89.1,57.2,89.9,56.5,89.9,55.2z"/>
	<path d="M100.2,58.9h-2.1v-2.8h-2.5v2.8h-2.1v-7.3h2.1v2.8h2.5v-2.8h2.1V58.9z"/>
	<path d="M101.7,55.2c0-2.1,1.5-3.8,3.6-3.8c2.4,0,3.6,1.9,3.6,4c0,0.2,0,0.4,0,0.5h-5.1c0.2,0.9,0.9,1.4,1.8,1.4
		c0.7,0,1.2-0.2,1.8-0.7l1.2,1c-0.7,0.8-1.7,1.4-3,1.4C103.3,59,101.7,57.5,101.7,55.2z M106.8,54.6c-0.1-0.9-0.7-1.6-1.5-1.6
		c-0.9,0-1.4,0.6-1.6,1.6H106.8z"/>
	<path d="M115.8,53.3h-2.2v5.5h-2.1v-5.5h-2.2v-1.8h6.4V53.3z"/>
	<path d="M116.7,53.6h4.2v2h-4.2V53.6z"/>
	<path d="M122.5,51.6h2.1l2,3.1l2-3.1h2.1v7.3h-2.1v-4.4l-2,3l-2-3v4.3h-2V51.6z"/>
	<path d="M132.1,56.7c0-1.6,1.2-2.3,2.9-2.3c0.7,0,1.3,0.1,1.8,0.3v-0.1c0-0.9-0.5-1.3-1.6-1.3c-0.8,0-1.3,0.1-2,0.4l-0.5-1.6
		c0.8-0.4,1.6-0.6,2.8-0.6c1.1,0,1.9,0.3,2.5,0.8c0.5,0.5,0.8,1.3,0.8,2.3v4.2h-2v-0.8c-0.5,0.6-1.2,0.9-2.2,0.9
		C133.2,59,132.1,58.2,132.1,56.7z M136.8,56.3v-0.4c-0.4-0.2-0.8-0.3-1.3-0.3c-0.9,0-1.4,0.4-1.4,1c0,0.6,0.5,0.9,1.1,0.9
		C136.2,57.6,136.8,57,136.8,56.3z"/>
	<path d="M142.6,53.3v5.5h-2.1v-7.3h5.3v1.8H142.6z"/>
	<path d="M146.3,56.7c0-1.6,1.2-2.3,2.9-2.3c0.7,0,1.3,0.1,1.8,0.3v-0.1c0-0.9-0.5-1.3-1.6-1.3c-0.8,0-1.3,0.1-2,0.4l-0.5-1.6
		c0.8-0.4,1.6-0.6,2.8-0.6c1.1,0,1.9,0.3,2.5,0.8c0.5,0.5,0.8,1.3,0.8,2.3v4.2h-2v-0.8c-0.5,0.6-1.2,0.9-2.2,0.9
		C147.4,59,146.3,58.2,146.3,56.7z M151,56.3v-0.4c-0.4-0.2-0.8-0.3-1.3-0.3c-0.9,0-1.4,0.4-1.4,1c0,0.6,0.5,0.9,1.1,0.9
		C150.4,57.6,151,57,151,56.3z"/>
	<path d="M154.3,52.6c0.7-0.7,1.8-1.1,3.1-1.1c1.6,0,2.8,0.8,2.8,2c0,0.9-0.5,1.4-1.1,1.6c0.8,0.3,1.3,0.8,1.3,1.7
		c0,1.3-1.2,2.2-2.9,2.2c-1.4,0-2.5-0.4-3.3-1.2l1-1.3c0.6,0.5,1.4,0.8,2.2,0.8c0.6,0,1.1-0.4,1.1-0.8c0-0.4-0.4-0.7-1.2-0.7h-0.9
		v-1.3h0.8c0.7,0,1-0.3,1-0.7c0-0.4-0.4-0.7-1-0.7c-0.8,0-1.5,0.3-2,0.8L154.3,52.6z"/>
	<path d="M168.7,58.9h-2v-4.2l-2.8,4.2h-1.9v-7.3h2v4.3l2.8-4.3h1.9V58.9z"/>
	<path d="M177.2,58.9h-2.1v-2.8h-2.5v2.8h-2.1v-7.3h2.1v2.8h2.5v-2.8h2.1V58.9z"/>
</g>
</svg>
